<?xml version="1.0" encoding="iso-8859-1"?>
<!-- Generator: Adobe Illustrator 16.0.0, SVG Export Plug-In . SVG Version: 6.00 Build 0)  -->
<!DOCTYPE svg PUBLIC "-//W3C//DTD SVG 1.1//EN" "http://www.w3.org/Graphics/SVG/1.1/DTD/svg11.dtd">
<svg version="1.1" id="Capa_1" xmlns="http://www.w3.org/2000/svg" xmlns:xlink="http://www.w3.org/1999/xlink" x="0px" y="0px"
	 width="407.601px" height="407.601px" viewBox="0 0 407.601 407.601" style="enable-background:new 0 0 407.601 407.601;"
	 xml:space="preserve">
<g>
	<path d="M123.077,106.864h46.73v104.033h-46.73V106.864z M347.181,79.095v249.426c0,11.738-9.552,21.297-21.29,21.297H81.72
		c-11.748,0-21.3-9.553-21.3-21.297V79.095c0-11.741,9.552-21.299,21.3-21.299h244.171
		C337.629,57.796,347.181,67.348,347.181,79.095z M210.902,106.864c0-8.116-4.173-15.223-12.507-21.311
		c-8.322-6.088-17.898-9.132-28.726-9.132H123.21c-10.914,0-20.489,3.044-28.726,9.132S82.13,98.748,82.13,106.864v104.246
		c0,8.115,4.093,15.179,12.283,21.196c8.192,6.022,17.744,9.031,28.664,9.031h0.981l16.275,26.173h45.182l-15.282-26.279
		c10.816,0,20.306-3.003,28.439-9.032c8.148-6.011,12.229-13.08,12.229-21.195V106.864z M404.119,38.281v331.035
		c0,21.144-17.147,38.284-38.284,38.284H41.766c-21.137,0-38.284-17.141-38.284-38.284V38.281C3.482,17.142,20.629,0,41.766,0
		h324.069C386.972,0,404.119,17.142,404.119,38.281z M362.277,79.095c0-20.058-16.326-36.389-36.387-36.389H81.72
		c-20.064,0-36.396,16.326-36.396,36.389v249.426c0,20.055,16.325,36.387,36.396,36.387h244.171
		c20.055,0,36.387-16.326,36.387-36.387V79.095z"/>
</g>
<g>
</g>
<g>
</g>
<g>
</g>
<g>
</g>
<g>
</g>
<g>
</g>
<g>
</g>
<g>
</g>
<g>
</g>
<g>
</g>
<g>
</g>
<g>
</g>
<g>
</g>
<g>
</g>
<g>
</g>
</svg>
